<svg width="182" height="24" viewBox="0 0 182 24" fill="none" xmlns="http://www.w3.org/2000/svg"><g clip-path="url(#clip0_4260_473)" fill-rule="evenodd" clip-rule="evenodd"><path d="M36.5 11.875h5.404c-.36-1.373-1.346-1.929-2.546-1.929-1.32 0-2.378.72-2.857 1.93zm8.574 2.348h-8.765c.36 1.768 1.848 2.419 3.145 2.419 1.632 0 2.33-.977 2.33-.977h3.026c-.913 2.325-3.098 3.603-5.452 3.603-3.242 0-6.076-2.395-6.076-6.02 0-3.605 2.81-5.837 5.98-5.837 3.074 0 6.197 2.07 5.812 6.812zm29.774-.883c0-1.813-1.105-3.231-2.93-3.231-1.826 0-3.05 1.418-3.05 3.231 0 1.814 1.224 3.232 3.05 3.232 1.825 0 2.93-1.418 2.93-3.232zm-9.126.023c0-3.72 2.978-5.952 6.196-5.952 3.243 0 6.076 2.255 6.076 5.905 0 3.697-2.931 5.951-6.173 5.951-3.266 0-6.1-2.254-6.1-5.904zm25.127-.511v6.3h-3.195V13.55c0-.396.29-3.325-2.017-3.44-1.13-.07-3.146.534-3.146 3.58v5.463h-3.17V7.527h2.91l.01 1.613s1.311-1.729 3.758-1.729c3.098 0 4.85 2.232 4.85 5.441zm11.679-2.976c-1.008 0-1.44.488-1.44.977 0 .79 1.08 1.022 1.8 1.162 2.14.441 4.301 1.07 4.301 3.533 0 2.394-2.042 3.72-4.516 3.72-2.76 0-4.898-1.627-5.043-4.091h2.953c.073.696.553 1.603 2.018 1.603 1.224 0 1.514-.626 1.514-1.115 0-.861-.842-1.117-1.659-1.302-1.416-.303-4.466-.86-4.466-3.51 0-2.28 2.258-3.442 4.587-3.442 2.689 0 4.467 1.581 4.612 3.534h-2.956c-.095-.395-.478-1.07-1.705-1.07zm14.37 3.464c0-1.93-1.082-3.069-2.642-3.069-1.464 0-2.931 1.023-2.931 3.07 0 2.044 1.467 3.068 2.931 3.068 1.56 0 2.642-1.14 2.642-3.069zm3.002-5.813V23.8h-3.002v-5.789c-.768.837-1.85 1.255-3.099 1.255-3.048 0-5.595-2.417-5.595-5.927 0-3.512 2.547-5.929 5.595-5.929 2.396 0 3.294 1.557 3.294 1.557l-.005-1.441h2.812zm17.16 4.348h5.404c-.36-1.373-1.346-1.929-2.546-1.929-1.32 0-2.378.72-2.858 1.93zm8.574 2.348h-8.766c.361 1.768 1.849 2.419 3.145 2.419 1.633 0 2.332-.977 2.332-.977h3.025c-.913 2.325-3.098 3.603-5.452 3.603-3.242 0-6.076-2.395-6.076-6.02 0-3.605 2.81-5.837 5.98-5.837 3.074 0 6.197 2.07 5.812 6.812zm4.186-2.348h5.403c-.359-1.373-1.345-1.929-2.546-1.929-1.32 0-2.378.72-2.857 1.93zm8.573 2.348h-8.764c.359 1.768 1.847 2.419 3.144 2.419 1.633 0 2.331-.977 2.331-.977h3.025c-.913 2.325-3.097 3.603-5.452 3.603-3.242 0-6.075-2.395-6.075-6.02 0-3.605 2.809-5.837 5.979-5.837 3.075 0 6.197 2.07 5.812 6.812zm10.693 2.326v2.603H158.88v-1.535l5.788-7.486h-5.547V7.526h9.726v1.535l-5.789 7.488h6.028zm12.494-9.023V17.99c0 3.14-1.658 5.93-5.764 5.93-3.842 0-5.931-2.442-5.931-4.279h3.001s.456 1.558 2.834 1.558c2.018 0 2.859-1.117 2.859-2.743v-.488c-.53.581-1.537 1.3-3.338 1.3-3.147 0-5.115-2.207-5.115-5.439l-.026-6.302h3.122v5.604c0 1.58.578 3.442 2.57 3.442 1.033 0 2.738-.489 2.738-3.582V7.526h3.05zM30.997 15.662c0 .725.285 1.024.815 1.024.374 0 .616-.043.97-.15l.198 2.39a6.58 6.58 0 01-2.116.34c-1.871 0-3.017-.596-3.017-3.178V2.877h3.15v12.785zm33.369-2.81v6.3h-3.195V13.55c0-1.604.168-3.627-2.042-3.44-.574.046-2.16.3-2.16 3.58v5.463h-3.17V13.55c0-1.604.168-3.627-2.042-3.44-.576.046-2.16.3-2.16 3.58v5.463h-3.17V7.527h2.91l.002 1.614s1.113-1.73 3.187-1.73c2.5 0 3.48 1.883 3.48 1.883s1.077-1.905 3.822-1.905c3.12 0 4.538 2.232 4.538 5.463zm56.881.975v-6.3h3.195v5.603c0 .395-.289 3.324 2.017 3.44 1.13.07 3.146-.534 3.146-3.58V7.526h3.17v11.626h-2.906l-.014-1.614s-1.312 1.73-3.758 1.73c-3.098 0-4.85-2.233-4.85-5.441z" fill="#21313C"/><path d="M5.939 14.73l6.438 2.977a3.296 3.296 0 011.665 1.7c.77 1.799-.282 3.64-1.933 4.3-1.65.662-3.41.237-4.21-1.634l-2.802-6.57c-.217-.51.328-1.01.842-.772zm.386-1.926l6.646-2.512c2.209-.835 4.621.745 4.589 3.04l-.002.09c-.048 2.235-2.393 3.738-4.554 2.947l-6.673-2.442a.595.595 0 01-.006-1.123zm-.372-.87l6.533-2.777c2.171-.922 2.722-3.691 1.022-5.29a8.61 8.61 0 00-.067-.064C11.773 2.256 9.018 2.801 8.069 4.84l-2.932 6.297c-.234.502.295 1.019.816.798zm-1.681-1.098l2.375-6.512a3.153 3.153 0 00-.065-2.342C5.812.183 3.724-.398 2.073.265.423.93-.51 2.435.292 4.305l2.82 6.563c.219.508.97.488 1.16-.032z" fill="#FFC233"/></g><defs><clipPath id="clip0_4260_473"><path fill="#fff" d="M0 0h181.714v24H0z"/></clipPath></defs></svg>